<svg width="300" height="70" viewBox="0 0 300 70" fill="none" xmlns="http://www.w3.org/2000/svg">
<path id="Mod Phone 1 (Traced)" fill-rule="evenodd" clip-rule="evenodd" d="M300 35V70H150H0V35V0H150H300V35ZM1.51515 35V68.6538H39.3939H77.2727V35V1.34616H39.3939H1.51515V35ZM79.1667 35V68.6538H188.826H298.485V35V1.34616H188.826H79.1667V35ZM45.4546 11.4423C45.4546 11.6274 46.0511 11.7788 46.7803 11.7788C47.5095 11.7788 48.1061 11.9303 48.1061 12.1154C48.1061 12.3005 48.4394 12.4519 48.847 12.4519C49.5019 12.4519 51.6307 13.505 52.9197 14.4664C53.1712 14.6542 53.6402 14.8077 53.9614 14.8077C54.2826 14.8077 54.5455 14.9591 54.5455 15.1442C54.5455 15.3293 54.7235 15.4808 54.9413 15.4808C55.1591 15.4808 55.7477 15.8214 56.2489 16.238C57.7686 17.5003 58.2833 17.8365 58.6962 17.8365C58.9133 17.8365 59.0909 18.0637 59.0909 18.3414C59.0909 18.619 59.2614 18.8462 59.4697 18.8462C59.678 18.8462 59.8485 18.9959 59.8485 19.179C59.8485 19.4755 60.4 20.1674 61.558 21.3238C62.3727 22.1372 63.2576 23.557 63.2576 24.0507C63.2576 24.3348 63.428 24.5673 63.6364 24.5673C63.8447 24.5673 64.0152 24.8702 64.0152 25.2404C64.0152 25.6106 64.1856 25.9135 64.3939 25.9135C64.6023 25.9135 64.7788 26.254 64.786 26.6707C64.7936 27.0873 65.0432 27.8065 65.3409 28.2692C65.6386 28.732 65.8883 29.7544 65.8958 30.5409C65.903 31.328 66.092 31.9712 66.3155 31.9712C67.0947 31.9712 66.1727 40.4324 65.2273 41.961C64.9773 42.3655 64.7727 43.0089 64.7727 43.3912C64.7727 43.7736 64.6023 44.0865 64.3939 44.0865C64.1856 44.0865 64.0152 44.3894 64.0152 44.7596C64.0152 45.1298 63.8447 45.4327 63.6364 45.4327C63.428 45.4327 63.2576 45.6652 63.2576 45.9493C63.2576 46.443 62.3727 47.8628 61.558 48.6762C60.5189 49.7138 59.8458 50.5127 59.8216 50.7369C59.8068 50.8738 59.203 51.4399 58.4799 51.9952C57.7568 52.5505 56.5814 53.4968 55.8678 54.0986C55.1545 54.7003 54.3235 55.1923 54.0216 55.1923C53.7193 55.1923 53.4152 55.3057 53.3451 55.4447C53.0977 55.9364 49.228 57.5481 48.2951 57.5481C47.7746 57.5481 47.3485 57.6995 47.3485 57.8846C47.3485 58.0697 46.7519 58.2211 46.0227 58.2211C45.2936 58.2211 44.697 58.3726 44.697 58.5577C44.697 58.7653 42.7398 58.8942 39.5833 58.8942C36.4269 58.8942 34.4697 58.7653 34.4697 58.5577C34.4697 58.3726 33.7027 58.2211 32.7652 58.2211C31.8277 58.2211 31.0606 58.0697 31.0606 57.8846C31.0606 57.6995 30.5492 57.5481 29.9242 57.5481C29.2992 57.5481 28.7879 57.4131 28.7879 57.2479C28.7879 57.083 28.3617 56.8528 27.8409 56.7367C27.3201 56.6206 26.8939 56.3769 26.8939 56.1955C26.8939 56.0138 26.553 55.8654 26.1364 55.8654C25.7197 55.8654 25.3788 55.7139 25.3788 55.5288C25.3788 55.3438 25.1231 55.1923 24.8106 55.1923C24.4981 55.1923 24.2424 55.0409 24.2424 54.8558C24.2424 54.6707 23.9746 54.5192 23.6473 54.5192C23.0564 54.5192 21.9697 53.7563 21.9697 53.3413C21.9697 53.065 20.9625 52.1635 20.6538 52.1635C20.3553 52.1635 18.5606 50.5767 18.5606 50.3125C18.5606 50.2031 18.1474 49.7464 17.6424 49.2978C17.1371 48.8489 16.5064 47.9473 16.2405 47.2937C15.9746 46.6405 15.6208 46.1058 15.4542 46.1058C15.2879 46.1058 15.1515 45.8029 15.1515 45.4327C15.1515 45.0625 14.9811 44.7596 14.7727 44.7596C14.5644 44.7596 14.3939 44.4658 14.3939 44.1064C14.3939 43.747 14.2424 43.37 14.0568 43.2681C13.8716 43.1664 13.6318 42.5896 13.5242 41.9862C13.4163 41.3831 13.1458 40.2837 12.9231 39.5433C12.3269 37.5614 12.4254 31.3957 13.0792 29.7837C13.3792 29.0433 13.6277 28.1057 13.6307 27.7001C13.6337 27.2946 13.8068 26.8692 14.0152 26.7548C14.2235 26.6404 14.3939 26.253 14.3939 25.8936C14.3939 25.5342 14.5644 25.2404 14.7727 25.2404C14.9811 25.2404 15.1515 25.0324 15.1515 24.778C15.1515 24.1332 17.0481 21.1477 17.8761 20.4895C18.2527 20.19 18.5606 19.8423 18.5606 19.7168C18.5606 19.4018 20.3508 17.8382 20.7216 17.8291C20.8871 17.8254 21.5326 17.2954 22.1553 16.6513C22.7784 16.0075 23.503 15.4808 23.7652 15.4808C24.0277 15.4808 24.2424 15.3293 24.2424 15.1442C24.2424 14.9591 24.4981 14.8077 24.8106 14.8077C25.1231 14.8077 25.3788 14.6563 25.3788 14.4712C25.3788 14.2861 25.7197 14.1346 26.1364 14.1346C26.553 14.1346 26.8939 13.9997 26.8939 13.8344C26.8939 13.6695 27.3201 13.4393 27.8409 13.3232C28.3617 13.2071 28.7879 12.9635 28.7879 12.7821C28.7879 12.6003 29.2992 12.4519 29.9242 12.4519C30.5492 12.4519 31.0606 12.3005 31.0606 12.1154C31.0606 11.9303 31.6572 11.7788 32.3864 11.7788C33.1155 11.7788 33.7121 11.6274 33.7121 11.4423C33.7121 11.2323 35.9216 11.1058 39.5833 11.1058C43.2451 11.1058 45.4546 11.2323 45.4546 11.4423ZM151.515 14.4712C151.515 14.6563 152.049 14.8077 152.702 14.8077C154.043 14.8077 155.573 16.0976 155.894 17.5C156 17.9627 156.252 18.8064 156.453 19.3749C156.654 19.9433 156.818 23.3107 156.818 26.8581C156.818 32.8589 156.476 35.7774 155.627 37.0192C155.436 37.2969 155.181 37.7892 155.058 38.113C154.936 38.4367 154.529 38.7019 154.154 38.7019C153.779 38.7019 153.401 38.8914 153.314 39.1226C153.101 39.6907 147.65 39.6725 147.436 39.1031C147.353 38.8823 146.959 38.7019 146.559 38.7019C146.086 38.7019 145.833 38.4677 145.833 38.0288C145.833 37.6587 145.689 37.3558 145.512 37.3558C145.335 37.3558 144.909 36.5811 144.565 35.6344C143.629 33.0595 143.654 20.7362 144.6 18.3414C144.966 17.4159 145.393 16.6082 145.549 16.5466C145.706 16.4847 145.833 16.2848 145.833 16.1017C145.833 15.4441 146.938 14.8077 148.079 14.8077C148.719 14.8077 149.242 14.6563 149.242 14.4712C149.242 14.2861 149.754 14.1346 150.379 14.1346C151.004 14.1346 151.515 14.2861 151.515 14.4712ZM220.833 14.4712C220.833 14.6563 221.345 14.8077 221.97 14.8077C222.595 14.8077 223.106 14.9591 223.106 15.1442C223.106 15.3293 223.3 15.4808 223.538 15.4808C224.12 15.4808 224.973 16.5203 224.988 17.2476C224.995 17.5714 225.17 17.8365 225.379 17.8365C225.622 17.8365 225.758 21.0337 225.758 26.7548C225.758 32.476 225.622 35.6731 225.379 35.6731C225.17 35.6731 225 35.9457 225 36.2792C225 37.3854 224.105 38.5915 222.935 39.0617C221.45 39.659 216.979 39.7031 216.761 39.1226C216.675 38.8914 216.435 38.7019 216.229 38.7019C215.731 38.7019 214.773 37.8326 214.773 37.3797C214.773 37.1814 214.602 37.0192 214.394 37.0192C214.186 37.0192 214.015 36.4135 214.015 35.6731C214.015 34.9327 213.845 34.3269 213.636 34.3269C213.395 34.3269 213.258 31.5784 213.258 26.7548C213.258 21.9312 213.395 19.1827 213.636 19.1827C213.845 19.1827 214.015 18.6526 214.015 18.0048C214.015 17.357 214.174 16.8269 214.369 16.8269C214.563 16.8269 214.83 16.524 214.962 16.1538C215.094 15.7837 215.447 15.4808 215.745 15.4808C216.044 15.4808 216.288 15.3293 216.288 15.1442C216.288 14.9591 216.884 14.8077 217.614 14.8077C218.343 14.8077 218.939 14.6563 218.939 14.4712C218.939 14.2861 219.366 14.1346 219.886 14.1346C220.407 14.1346 220.833 14.2861 220.833 14.4712ZM127.273 15.649C127.273 16.1118 127.443 16.4904 127.652 16.4904C127.86 16.4904 128.03 17.2385 128.03 18.1532C128.03 19.0679 128.201 19.9096 128.409 20.024C128.617 20.1385 128.79 20.7153 128.792 21.3059C128.794 21.8965 129.05 23.1232 129.36 24.0319C129.67 24.9405 129.924 26.2655 129.924 26.9766C129.924 27.6877 130.095 28.2692 130.303 28.2692C130.511 28.2692 130.682 29.1022 130.682 30.1202C130.682 31.1382 130.852 31.9712 131.061 31.9712C131.269 31.9712 131.439 31.5471 131.439 31.0289C131.439 30.5106 131.594 29.9425 131.783 29.7668C131.972 29.5908 132.213 28.6899 132.319 27.7644C132.424 26.8389 132.796 24.9459 133.146 23.5577C133.496 22.1695 133.868 20.2384 133.972 19.2668C134.076 18.2952 134.316 17.5 134.505 17.5C134.694 17.5 134.848 16.8942 134.848 16.1538V14.8077H137.5H140.152V27.0914V39.375H138.258H136.364L136.358 31.887C136.354 26.9281 136.228 24.5697 135.985 24.9038C135.783 25.1815 135.615 26.0525 135.612 26.8389C135.609 27.6254 135.436 28.2692 135.227 28.2692C135.019 28.2692 134.848 29.1022 134.848 30.1202C134.848 31.1382 134.693 31.9712 134.503 31.9712C134.314 31.9712 134.076 32.8418 133.975 33.9063C133.875 34.9707 133.581 36.6366 133.323 37.6082L132.854 39.375H131.225C129.942 39.375 129.547 39.2357 129.361 38.7171C128.995 37.6916 128.364 34.6598 128.151 32.8966C128.044 32.0173 127.803 31.2981 127.615 31.2981C127.427 31.2981 127.273 30.3894 127.273 29.2788C127.273 28.1572 127.105 27.2596 126.894 27.2596C126.686 27.2596 126.513 26.6919 126.509 25.9976C126.506 25.3037 126.338 24.5084 126.136 24.2308C125.894 23.8969 125.767 26.3742 125.763 31.5505L125.758 39.375H123.864H121.97V27.0914V14.8077H124.621C127.197 14.8077 127.273 14.8316 127.273 15.649ZM169.318 15.1442C169.318 15.3293 169.589 15.4808 169.92 15.4808C170.738 15.4808 171.942 16.8229 171.957 17.7524C171.964 18.169 172.14 18.5096 172.349 18.5096C172.591 18.5096 172.727 21.4823 172.727 26.7548C172.727 32.0274 172.591 35 172.349 35C172.14 35 171.97 35.4611 171.97 36.0248C171.97 37.0344 170.564 38.7019 169.714 38.7019C169.496 38.7019 169.318 38.8534 169.318 39.0385C169.318 39.2441 167.55 39.375 164.773 39.375H160.227V27.0914V14.8077H164.773C167.55 14.8077 169.318 14.9386 169.318 15.1442ZM191.288 15.1442C191.288 15.3293 191.591 15.4808 191.963 15.4808C192.936 15.4808 193.767 17.394 194.567 21.4718C194.686 22.083 194.604 23.2188 194.383 23.9959C194.163 24.7729 193.894 25.7886 193.787 26.253C193.68 26.7178 193.008 27.6641 192.294 28.3564C191.161 29.4559 190.779 29.6154 189.279 29.6154C186.27 29.6154 186.364 29.4518 186.364 34.6995V39.375H184.28H182.197V27.0914V14.8077H186.742C189.52 14.8077 191.288 14.9386 191.288 15.1442ZM201.515 19.6875V24.5673H203.598H205.682V19.6875V14.8077H207.765H209.849V27.0914V39.375H207.765H205.682V33.8221V28.2692H203.598H201.515V33.8221V39.375H199.432H197.349V27.0914V14.8077H199.432H201.515V19.6875ZM233.333 15.4808C233.333 15.851 233.504 16.1538 233.712 16.1538C233.92 16.1538 234.091 16.4517 234.091 16.8155C234.091 17.4122 234.764 19.0477 235.652 20.6083C235.835 20.9297 235.985 21.5735 235.985 22.0386C235.985 22.504 236.155 22.8846 236.364 22.8846C236.572 22.8846 236.742 23.2632 236.742 23.726C236.742 24.1887 236.913 24.5673 237.121 24.5673C237.33 24.5673 237.5 25.0126 237.5 25.5571C237.5 26.1016 237.683 26.6471 237.905 26.7693C238.128 26.8918 238.453 27.3172 238.627 27.7146C238.802 28.1151 238.849 25.3965 238.731 21.6226L238.519 14.8077H240.661H242.803V27.0914V39.375H241.099C239.698 39.375 239.394 39.265 239.394 38.7581C239.394 38.4186 239.272 38.0332 239.124 37.9013C238.705 37.5294 237.501 34.5652 237.5 33.9063C237.5 33.5825 237.33 33.3173 237.121 33.3173C236.913 33.3173 236.742 32.863 236.742 32.3077C236.742 31.7524 236.572 31.2981 236.364 31.2981C236.155 31.2981 235.985 30.9174 235.985 30.452C235.985 29.607 235.91 29.4202 234.723 27.3165C234.375 26.7 234.091 25.9804 234.091 25.7179C234.091 25.4554 233.92 25.2404 233.712 25.2404C233.472 25.2404 233.333 27.8206 233.333 32.3077V39.375H231.629H229.924V27.0914V14.8077H231.629C233.081 14.8077 233.333 14.9073 233.333 15.4808ZM256.061 16.3221V17.8365H253.599H251.136V21.5385V25.2404H253.599H256.061V26.7548V28.2692H253.599H251.136V32.3077V36.3462H253.599H256.061V37.8606V39.375H251.515H246.97V27.0914V14.8077H251.515H256.061V16.3221ZM28.8458 16.7822L28.0303 17.4108L28.0424 35.0394C28.0519 49.1649 28.1545 52.7854 28.5576 53.2572C29.0148 53.7923 29.9905 53.8462 39.2568 53.8462C49.0034 53.8462 49.4814 53.8162 50.1053 53.1694C50.7042 52.5478 50.7576 51.0818 50.7576 35.3005C50.7576 19.6629 50.6989 18.0203 50.1076 17.1312L49.458 16.1538H39.5595C30.4394 16.1538 29.5973 16.2033 28.8458 16.7822ZM148.955 18.5049C148.317 19.4129 148.29 34.2519 148.925 35.489C149.236 36.0971 149.659 36.3462 150.379 36.3462C152.08 36.3462 152.273 35.4022 152.273 27.0914C152.273 18.8176 152.075 17.8365 150.409 17.8365C149.837 17.8365 149.228 18.1165 148.955 18.5049ZM165.152 27.2596C165.152 34.5763 165.257 36.6817 165.625 36.678C166.826 36.6665 167.746 36.2203 168.136 35.4604C168.687 34.3848 168.73 19.1827 168.182 19.1827C167.974 19.1827 167.803 18.8798 167.803 18.5096C167.803 17.9648 167.55 17.8365 166.477 17.8365H165.152V27.2596ZM186.364 22.2115V26.5865L187.405 26.5758C189.503 26.5542 189.943 25.8707 189.953 22.6235C189.958 21.0087 189.831 19.2709 189.671 18.762C189.416 17.9506 189.194 17.8365 187.872 17.8365H186.364V22.2115ZM218.182 18.8462C218.182 19.4014 218.011 19.8558 217.803 19.8558C217.562 19.8558 217.424 22.4919 217.424 27.0914C217.424 31.6908 217.562 34.3269 217.803 34.3269C218.011 34.3269 218.182 34.7812 218.182 35.3365C218.182 36.2391 218.305 36.3462 219.345 36.3462C221.555 36.3462 221.591 36.1961 221.591 27.0914C221.591 17.9866 221.555 17.8365 219.345 17.8365C218.305 17.8365 218.182 17.9436 218.182 18.8462ZM47.9167 22.2115C48.0489 22.5817 48.3159 22.8846 48.5102 22.8846C48.7223 22.8846 48.8636 27.7954 48.8636 35.1683C48.8636 43.1331 48.7303 47.4519 48.4849 47.4519C48.2765 47.4519 48.1061 47.6791 48.1061 47.9567C48.1061 48.3912 46.8644 48.4615 39.2046 48.4615C30.5557 48.4615 30.303 48.4424 30.303 47.7885C30.303 47.4183 30.1326 47.1154 29.9242 47.1154C29.6788 47.1154 29.5455 42.8524 29.5455 35C29.5455 27.7311 29.6867 22.8846 29.8989 22.8846C30.0932 22.8846 30.3602 22.5817 30.4924 22.2115C30.7235 21.5651 31.0655 21.5385 39.2046 21.5385C47.3436 21.5385 47.6856 21.5651 47.9167 22.2115ZM218.371 50.6009C218.702 50.8947 219.07 51.8623 219.188 52.7511C219.385 54.2274 219.3 54.4657 218.203 55.5087C217.191 56.4712 216.741 56.6505 215.341 56.6505C212.11 56.6505 210.249 53.5133 212.184 51.3278C213.756 49.5523 216.79 49.1959 218.371 50.6009ZM40.6886 50.012C41.0367 50.1304 41.2879 50.6093 41.2879 51.1535C41.2879 52.2335 40.2348 52.6326 38.2947 52.288C37.4485 52.1375 37.1212 51.8902 37.1212 51.4012C37.1212 50.1876 39.0273 49.4456 40.6886 50.012ZM142.583 50.012C143.032 50.1651 143.182 50.6955 143.182 52.1322C143.182 53.2027 143.391 54.2449 143.655 54.494C144.034 54.8507 144.034 54.9709 143.655 55.094C143.395 55.1789 143.182 55.4467 143.182 55.689C143.182 56.3201 142.298 56.5385 139.742 56.5385H137.5V53.3693C137.5 51.1491 137.642 50.1496 137.973 50.0305C138.658 49.7851 141.879 49.772 142.583 50.012ZM146.877 51.5166C147.092 54.8635 147.255 55.1923 148.691 55.1923H150V52.4764C150 49.8528 150.029 49.7646 150.852 49.8683C151.639 49.9675 151.713 50.1725 151.814 52.5178C151.953 55.7523 151.277 56.6505 148.706 56.6505C146.13 56.6505 145.076 55.3626 145.076 52.2136C145.076 50.2792 145.398 49.7283 146.402 49.946C146.61 49.9911 146.824 50.6978 146.877 51.5166ZM155.601 53.2612C155.703 56.3651 155.669 56.5385 154.938 56.5385C154.213 56.5385 154.167 56.3342 154.167 53.1485C154.167 50.1012 154.234 49.7697 154.83 49.871C155.398 49.9675 155.508 50.4525 155.601 53.2612ZM159.091 52.5V55.1923H160.417C161.49 55.1923 161.742 55.3205 161.742 55.8654C161.742 56.457 161.49 56.5385 159.659 56.5385H157.576V53.1731C157.576 50.0322 157.626 49.8077 158.333 49.8077C159.028 49.8077 159.091 50.0322 159.091 52.5ZM168.298 50.6208C169.201 51.3107 169.363 51.6937 169.376 53.1616C169.389 54.6525 169.243 55.0032 168.313 55.7139C167.466 56.3614 166.809 56.5378 165.246 56.5381L163.258 56.5385V53.3975C163.258 51.6698 163.371 50.1553 163.51 50.0322C163.649 49.9087 164.544 49.808 165.499 49.808C166.788 49.8084 167.509 50.0177 168.298 50.6208ZM176.353 50.2886C176.65 50.5528 176.894 50.9314 176.894 51.1299C176.894 51.7758 178.352 51.5092 178.598 50.818C178.847 50.1207 180.517 49.5351 180.984 49.9817C181.13 50.1217 181.037 50.3041 180.777 50.3865C180.516 50.4693 180.303 50.7513 180.303 51.0135C180.303 51.276 180.133 51.4904 179.924 51.4904C179.716 51.4904 179.545 51.7933 179.545 52.1635C179.545 52.5337 179.375 52.8365 179.167 52.8365C178.958 52.8365 178.788 53.6695 178.788 54.6875C178.788 56.4375 178.736 56.5385 177.841 56.5385C176.95 56.5385 176.894 56.4325 176.894 54.7619C176.894 53.3713 176.729 52.8796 176.136 52.5C175.72 52.2331 175.379 51.7455 175.379 51.416C175.379 51.0869 175.208 50.8173 175 50.8173C174.792 50.8173 174.621 50.5901 174.621 50.3125C174.621 49.6724 175.644 49.6583 176.353 50.2886ZM188.522 50.3966C188.94 50.7204 189.563 51.4705 189.906 52.0632C190.426 52.9597 190.453 53.2983 190.066 54.0824C189.508 55.2125 188.405 56.1575 187.136 56.5926C185.828 57.0413 182.955 56.0596 182.955 55.1644C182.955 54.8097 182.784 54.5192 182.576 54.5192C182.367 54.5192 182.197 53.8987 182.197 53.1398C182.197 52.0305 182.427 51.5691 183.374 50.784C184.782 49.6152 187.273 49.4277 188.522 50.3966ZM193.861 52.5841L193.971 55.1923H195.274C196.752 55.1923 196.897 54.92 197.061 51.8269C197.147 50.195 197.26 49.9632 198.011 49.8683C198.831 49.765 198.864 49.8585 198.864 52.3237C198.864 54.5842 198.756 54.9823 197.949 55.6988C196.817 56.7044 195.534 57.0133 194.267 56.5852C192.365 55.9425 192.045 55.3488 192.045 52.4526C192.045 49.8538 192.075 49.7646 192.898 49.8683C193.686 49.9679 193.758 50.1705 193.861 52.5841ZM205.624 50.436C206.647 51.2245 206.675 52.5374 205.682 53.1731C204.889 53.6812 204.653 54.5192 205.303 54.5192C205.511 54.5192 205.682 54.8221 205.682 55.1923C205.682 55.5625 205.852 55.8654 206.061 55.8654C206.269 55.8654 206.439 56.0168 206.439 56.2019C206.439 56.8286 204.606 56.5661 204.37 55.9054C204.122 55.2091 202.892 53.8462 202.513 53.8462C202.381 53.8462 202.273 54.4519 202.273 55.1923C202.273 56.4038 202.178 56.5385 201.326 56.5385C200.383 56.5385 200.379 56.5237 200.379 53.3975C200.379 51.6698 200.492 50.1553 200.631 50.0322C201.209 49.5193 204.813 49.8107 205.624 50.436ZM221.749 50.012C222.086 50.1267 222.35 50.6066 222.351 51.1057C222.352 51.595 222.67 52.4223 223.058 52.9442C223.643 53.7331 223.803 53.7994 224.002 53.3373C224.134 53.0317 224.242 52.3395 224.242 51.7993C224.242 51.2592 224.413 50.8173 224.621 50.8173C224.83 50.8173 225 50.5901 225 50.3125C225 49.5916 226.416 49.6872 226.869 50.4387C227.078 50.7857 227.361 51.6916 227.497 52.4519C227.743 53.8165 228.409 54.0831 228.409 52.8167C228.409 52.4573 228.58 52.1635 228.788 52.1635C228.996 52.1635 229.167 51.6334 229.167 50.9856C229.167 49.9383 229.277 49.8077 230.162 49.8077C231.121 49.8077 231.148 49.8602 230.9 51.238C230.759 52.0245 230.481 52.8123 230.284 52.988C230.086 53.1637 229.924 53.7317 229.924 54.25C229.924 54.7683 229.754 55.1923 229.545 55.1923C229.337 55.1923 229.167 55.4952 229.167 55.8654C229.167 56.3608 228.914 56.5385 228.21 56.5385C227.183 56.5385 226.515 55.5349 226.515 53.9925C226.515 53.3975 226.308 53.1731 225.758 53.1731C225.141 53.1731 225 53.3976 225 54.3749C225 55.6601 224.308 56.5385 223.295 56.5385C222.245 56.5385 221.591 55.6433 221.591 54.2066C221.591 53.4531 221.439 52.8365 221.253 52.8365C220.898 52.8365 220.447 50.4925 220.719 50.0601C220.911 49.7549 220.985 49.7515 221.749 50.012ZM235.108 50.5393C235.59 50.9418 235.985 51.3975 235.985 51.552C235.985 51.7064 236.453 52.3018 237.027 52.8752L238.068 53.9178L238.258 51.9471C238.424 50.2199 238.553 49.9625 239.299 49.8683C240.135 49.7629 240.152 49.8279 240.152 53.1495V56.5385H238.826C237.896 56.5385 237.5 56.3867 237.5 56.0306C237.5 55.7513 236.994 55.052 236.375 54.4768C235.756 53.9017 235.141 53.126 235.008 52.7527C234.61 51.6374 234.103 52.7588 234.097 54.7716C234.092 56.3123 233.994 56.5385 233.333 56.5385C232.626 56.5385 232.576 56.314 232.576 53.1731C232.576 49.9369 232.608 49.8077 233.404 49.8077C233.859 49.8077 234.626 50.1368 235.108 50.5393ZM139.611 51.3793C139.319 52.0564 139.969 52.4795 140.951 52.2513C141.78 52.0585 141.849 51.7869 141.212 51.2212C140.572 50.6527 139.896 50.7194 139.611 51.3793ZM165.152 52.9688C165.152 54.9934 165.222 55.1923 165.936 55.1923C167.134 55.1923 167.803 54.3705 167.803 52.8998C167.803 51.9212 167.628 51.524 167.14 51.3995C166.776 51.3063 166.179 51.1212 165.814 50.9876C165.222 50.7712 165.152 50.9832 165.152 52.9688ZM202.273 51.8269C202.273 52.9553 203.072 53.1845 204.031 52.3317C204.536 51.8831 204.536 51.7707 204.031 51.3221C203.072 50.4693 202.273 50.6985 202.273 51.8269ZM185.234 51.3958C184.925 51.5072 184.456 51.7906 184.192 52.0251C183.624 52.5306 183.546 54.1827 184.091 54.1827C184.299 54.1827 184.47 54.4099 184.47 54.6875C184.47 55.0574 184.9 55.1916 186.08 55.1896C187.456 55.1876 187.758 55.0557 188.163 54.2813C188.424 53.7829 188.636 53.1677 188.636 52.9136C188.636 51.8838 186.51 50.9351 185.234 51.3958ZM214.78 51.4029C213.792 51.7472 213.258 52.4276 213.258 53.3413C213.258 54.4755 214.064 55.1923 215.341 55.1923C215.892 55.1923 216.586 54.9759 216.883 54.7114C217.611 54.0652 217.614 51.4904 216.887 51.4904C216.592 51.4904 216.123 51.4268 215.845 51.3487C215.568 51.271 215.088 51.2952 214.78 51.4029ZM139.624 54.3786C139.281 55.1731 139.302 55.1923 140.53 55.1923C141.414 55.1923 141.667 55.0429 141.667 54.5192C141.667 53.686 139.973 53.5695 139.624 54.3786Z" fill="#FEFEFE"/>
</svg>
