<svg width="930" height="819" viewBox="0 0 930 819" fill="none" xmlns="http://www.w3.org/2000/svg">
<g id="phone 1" clip-path="url(#clip0)">
<g id="Vector">
<g id="Vector_2" opacity="0.1" filter="url(#filter0_d)">
<path d="M272.4 32.0249C302.229 3.92076 349.054 -1.80213 391.64 0.438999C525.493 7.44253 646.314 75.787 750.83 153.056C788.684 181.07 825.914 211.175 850.472 249.705C900.468 328.124 885.638 436.799 816.119 501.362C792.46 523.373 763.795 540.191 734.354 555.129C682.02 581.692 625.523 603.013 566.148 609.076C523.79 613.408 480.901 609.887 438.788 603.854C321.137 586.985 205.653 549.676 108.879 485.854C66.4253 457.84 26.4039 423.062 8.90578 377.799C-8.59234 332.537 2.61251 275.128 45.9556 248.324C63.9364 237.238 85.324 232.236 106.314 227.534C137.203 220.61 168.594 213.787 196.473 199.72C225.281 185.172 259.349 157.068 253.671 124.912C247.52 90.3844 242.608 60.0891 272.4 32.0249Z" fill="#081EDE"/>
</g>
</g>
<path id="Vector_3" opacity="0.1" d="M393.68 746.77C490.882 746.77 569.68 741.196 569.68 734.32C569.68 727.444 490.882 721.87 393.68 721.87C296.478 721.87 217.68 727.444 217.68 734.32C217.68 741.196 296.478 746.77 393.68 746.77Z" fill="#686771"/>
<g id="Group" opacity="0.1">
<path id="Vector_4" opacity="0.1" d="M406.65 646.34C410.49 652.87 416.51 657.08 423.29 657.08C434.87 657.08 444.29 644.81 444.29 629.66C444.29 614.51 434.84 602.34 423.29 602.34C417.84 602.34 412.87 605.06 409.14 609.53C407.725 611.24 406.526 613.117 405.57 615.12L405.37 616.31C405.37 616.31 400.9 620.13 394.81 616.62V527.8H308.09C307.389 526.881 306.926 525.803 306.742 524.662C306.559 523.521 306.661 522.352 307.04 521.26C307.688 519.23 309.086 517.524 310.95 516.49C317.48 512.65 321.7 506.63 321.7 499.85C321.7 488.27 309.42 478.85 294.28 478.85C279.14 478.85 266.86 488.24 266.86 499.85C266.86 505.3 269.59 510.28 274.06 514.01C275.768 515.419 277.642 516.614 279.64 517.57L279.76 517.77C281.071 519.039 281.941 520.695 282.242 522.495C282.542 524.295 282.258 526.144 281.43 527.77H242.32V692.25C242.32 702.593 246.429 712.513 253.743 719.827C261.057 727.141 270.977 731.25 281.32 731.25H394.84V643.97C395.765 643.092 396.915 642.487 398.163 642.222C399.411 641.957 400.708 642.043 401.91 642.47C403.926 643.107 405.622 644.492 406.65 646.34V646.34Z" fill="black"/>
<path id="Vector_5" opacity="0.1" d="M260.7 524.34H274.28C270.978 521.803 268.298 518.548 266.442 514.821C264.587 511.094 263.604 506.993 263.57 502.83C263.57 487.24 277.17 474.61 293.94 474.61C310.71 474.61 324.32 487.24 324.32 502.83C324.286 506.993 323.303 511.094 321.448 514.821C319.592 518.548 316.912 521.803 313.61 524.34H395.01V436.71C395.94 435.84 397.091 435.241 398.336 434.977C399.582 434.713 400.877 434.793 402.08 435.21C404.115 435.853 405.826 437.252 406.86 439.12C410.69 445.65 416.71 449.86 423.5 449.86C435.08 449.86 444.5 437.59 444.5 422.45C444.5 407.31 435.12 395.03 423.5 395.03C418.04 395.03 413.07 397.76 409.34 402.22C407.93 403.933 406.731 405.81 405.77 407.81L405.58 407.93C404.239 409.329 402.463 410.231 400.542 410.488C398.621 410.744 396.67 410.339 395.01 409.34V320.54H311.52C310.819 319.621 310.356 318.543 310.172 317.402C309.989 316.261 310.091 315.092 310.47 314C311.113 311.967 312.513 310.26 314.38 309.23C320.91 305.4 325.12 299.37 325.12 292.59C325.12 281.01 312.85 271.59 297.71 271.59C282.57 271.59 270.29 280.98 270.29 292.59C270.29 298.05 273.02 303.02 277.48 306.75C279.193 308.16 281.07 309.359 283.07 310.32L283.19 310.51C284.501 311.779 285.371 313.435 285.672 315.235C285.972 317.035 285.688 318.884 284.86 320.51H260.7V316.01H278.54C275.245 313.477 272.569 310.228 270.716 306.508C268.862 302.788 267.878 298.696 267.84 294.54C267.84 278.95 281.44 266.31 298.22 266.31C315 266.31 328.59 278.95 328.59 294.54C328.55 298.705 327.561 302.806 325.699 306.532C323.836 310.257 321.148 313.509 317.84 316.04H394.94V227.34C395.868 226.463 397.02 225.859 398.269 225.594C399.518 225.329 400.816 225.415 402.02 225.84C404.051 226.486 405.758 227.885 406.79 229.75C410.62 236.28 416.65 240.49 423.43 240.49C435.01 240.49 444.43 228.22 444.43 213.07C444.43 197.92 435.05 185.66 423.43 185.66C417.97 185.66 413 188.38 409.27 192.85C407.855 194.56 406.656 196.437 405.7 198.44L405.51 199.63C405.51 199.63 401.04 203.45 394.94 199.94V117.21H281.47C271.127 117.21 261.207 121.319 253.893 128.633C246.579 135.947 242.47 145.867 242.47 156.21V198.43H241.88C241.273 198.43 240.69 198.671 240.261 199.101C239.831 199.53 239.59 200.113 239.59 200.72V220.72C239.593 221.327 239.835 221.907 240.264 222.336C240.692 222.765 241.273 223.007 241.88 223.01H242.47V243.43H241.7C241.092 243.43 240.508 243.671 240.077 244.1C239.646 244.529 239.403 245.112 239.4 245.72V283.91C239.403 284.518 239.646 285.101 240.077 285.53C240.508 285.959 241.092 286.2 241.7 286.2H242.47V301.2H241.84C241.233 301.2 240.65 301.441 240.221 301.871C239.791 302.3 239.55 302.883 239.55 303.49V315.79H239.05V341.71C239.049 342.011 239.107 342.309 239.222 342.588C239.336 342.866 239.505 343.119 239.718 343.332C239.931 343.545 240.184 343.714 240.462 343.828C240.74 343.943 241.039 344.001 241.34 344H242.02V524.34H260.7Z" fill="black"/>
<path id="Vector_6" opacity="0.1" d="M557.43 258.84C557.43 258.232 557.189 257.648 556.76 257.217C556.331 256.786 555.748 256.543 555.14 256.54H553.76V254.03H553.01V154.28C553.011 149.355 552.042 144.478 550.158 139.928C548.274 135.378 545.512 131.243 542.029 127.761C538.547 124.278 534.412 121.516 529.862 119.632C525.312 117.748 520.435 116.779 515.51 116.78H403.01V192.78C405.58 189.37 408.902 186.598 412.717 184.682C416.533 182.765 420.74 181.755 425.01 181.73C440.72 181.73 453.46 195.34 453.46 212.12C453.46 228.9 440.72 242.51 425.01 242.51C420.74 242.486 416.532 241.477 412.716 239.56C408.9 237.644 405.579 234.871 403.01 231.46V315.79H494.01C490.713 313.246 488.037 309.986 486.185 306.256C484.333 302.526 483.353 298.424 483.32 294.26C483.32 278.65 496.89 266 513.64 266C521.085 265.959 528.303 268.559 534.01 273.34C537.143 275.843 539.672 279.019 541.41 282.633C543.148 286.247 544.051 290.205 544.051 294.215C544.051 298.225 543.148 302.183 541.41 305.797C539.672 309.411 537.143 312.587 534.01 315.09V315.76H553.76V315.69H557.43V258.84Z" fill="black"/>
<path id="Vector_7" opacity="0.1" d="M527.22 519.85V509.85C527.632 509.249 528.009 508.625 528.35 507.98C529.689 505.543 530.397 502.81 530.41 500.03C530.407 498.177 530.089 496.337 529.47 494.59C528.924 493.034 528.167 491.56 527.22 490.21V490.21C522.61 483.58 513.5 479.06 503 479.06C487.85 479.06 475.58 488.45 475.58 500.06C475.58 505.52 478.31 510.49 482.77 514.22C484.483 515.63 486.36 516.829 488.36 517.79L488.48 517.98C489.79 519.25 490.659 520.906 490.959 522.705C491.26 524.505 490.976 526.353 490.15 527.98H401.93V609.98C404.463 606.59 407.747 603.833 411.524 601.925C415.301 600.017 419.468 599.009 423.7 598.98C439.29 598.98 451.92 612.58 451.92 629.35C451.92 646.12 439.29 659.73 423.7 659.73C419.468 659.701 415.301 658.693 411.524 656.785C407.747 654.877 404.463 652.12 401.93 648.73V714.92H503.16C509.531 714.92 515.641 712.393 520.152 707.894C524.662 703.395 527.204 697.291 527.22 690.92V528.01V690.81C527.22 697.191 524.685 703.311 520.173 707.823C515.661 712.335 509.541 714.87 503.16 714.87H401.93V730.87H506.93C517.273 730.87 527.193 726.761 534.507 719.447C541.821 712.133 545.93 702.213 545.93 691.87V528.01V523.71H527.22V519.85Z" fill="black"/>
</g>
<path id="Vector_8" d="M286.09 711.2C279.709 711.2 273.589 708.665 269.077 704.153C264.565 699.641 262.03 693.521 262.03 687.14V523.8H243.32V688.25C243.32 698.593 247.429 708.513 254.743 715.827C262.057 723.141 271.977 727.25 282.32 727.25H395.84V711.25L286.09 711.2Z" fill="black"/>
<path id="Vector_9" d="M402.84 638.47C404.874 639.11 406.583 640.511 407.61 642.38C411.45 648.91 417.47 653.12 424.25 653.12C435.83 653.12 445.25 640.85 445.25 625.7C445.25 610.55 435.84 598.34 424.29 598.34C418.84 598.34 413.87 601.06 410.14 605.53C408.726 607.24 407.527 609.117 406.57 611.12L406.37 612.31C406.37 612.31 401.9 616.13 395.81 612.62V523.8H309.09C308.389 522.881 307.926 521.803 307.743 520.662C307.559 519.521 307.662 518.352 308.04 517.26C308.688 515.23 310.086 513.524 311.95 512.49C318.48 508.65 322.7 502.63 322.7 495.85C322.7 484.27 310.42 474.85 295.28 474.85C280.14 474.85 267.86 484.24 267.86 495.85C267.86 501.3 270.59 506.28 275.06 510.01C276.768 511.419 278.642 512.614 280.64 513.57L280.76 513.77C282.071 515.039 282.941 516.695 283.242 518.495C283.542 520.295 283.258 522.144 282.43 523.77H262.03V687.14C262.03 693.521 264.565 699.641 269.077 704.153C273.589 708.665 279.709 711.2 286.09 711.2H395.84V639.97C396.759 639.105 397.897 638.507 399.131 638.243C400.365 637.978 401.648 638.057 402.84 638.47Z" fill="#686771"/>
<path id="Vector_10" d="M242.99 311.71H240.02V316.55H242.99V311.71Z" fill="black"/>
<path id="Vector_11" d="M261.7 311.71H245.47V316.55H261.7V311.71Z" fill="black"/>
<path id="Vector_12" d="M245.47 311.71H242.99V316.55H245.47V311.71Z" fill="black"/>
<path id="Vector_13" d="M242.31 339.92H242.99V316.54H239.99V337.63C239.989 337.934 240.048 338.234 240.164 338.515C240.281 338.795 240.452 339.05 240.668 339.263C240.884 339.476 241.141 339.644 241.423 339.757C241.705 339.87 242.006 339.925 242.31 339.92Z" fill="black"/>
<path id="Vector_14" d="M261.7 316.54H245.47V337.63C245.47 337.932 245.41 338.23 245.295 338.509C245.179 338.787 245.009 339.04 244.796 339.253C244.582 339.466 244.328 339.634 244.049 339.749C243.77 339.863 243.472 339.921 243.17 339.92H242.99V520.34H261.7V316.54Z" fill="black"/>
<path id="Vector_15" d="M242.99 339.92H243.17C243.472 339.921 243.77 339.863 244.049 339.749C244.328 339.634 244.582 339.466 244.796 339.253C245.009 339.04 245.179 338.787 245.295 338.509C245.41 338.23 245.47 337.932 245.47 337.63V316.54H242.99V339.92Z" fill="black"/>
<path id="Vector_16" d="M264.57 498.79C264.57 483.2 278.17 470.57 294.94 470.57C311.71 470.57 325.32 483.2 325.32 498.79C325.292 502.96 324.312 507.069 322.456 510.803C320.6 514.538 317.917 517.799 314.61 520.34H396.01V432.71C396.94 431.84 398.091 431.241 399.336 430.977C400.582 430.713 401.877 430.793 403.08 431.21C405.115 431.853 406.826 433.252 407.86 435.12C411.69 441.65 417.71 445.86 424.5 445.86C436.08 445.86 445.5 433.59 445.5 418.45C445.5 403.31 436.12 391.03 424.5 391.03C419.04 391.03 414.07 393.76 410.34 398.22C408.93 399.933 407.731 401.81 406.77 403.81L406.58 403.93C405.239 405.329 403.463 406.231 401.542 406.488C399.621 406.744 397.67 406.339 396.01 405.34V316.54H312.52C311.819 315.621 311.356 314.543 311.172 313.402C310.989 312.261 311.091 311.092 311.47 310C312.113 307.967 313.513 306.26 315.38 305.23C321.91 301.4 326.12 295.37 326.12 288.59C326.12 277.01 313.85 267.59 298.71 267.59C283.57 267.59 271.29 276.98 271.29 288.59C271.29 294.05 274.02 299.02 278.48 302.75C280.193 304.16 282.07 305.359 284.07 306.32L284.19 306.51C285.501 307.779 286.371 309.435 286.672 311.235C286.972 313.035 286.688 314.884 285.86 316.51H261.7V520.34H275.28C271.973 517.799 269.289 514.538 267.434 510.803C265.578 507.069 264.598 502.96 264.57 498.79V498.79Z" fill="#686771"/>
<path id="Vector_17" d="M245.97 299.08C245.97 298.778 245.91 298.48 245.795 298.201C245.679 297.923 245.509 297.67 245.296 297.457C245.082 297.244 244.828 297.076 244.549 296.961C244.27 296.847 243.972 296.789 243.67 296.79H243.49V311.71H245.97V299.08Z" fill="black"/>
<path id="Vector_18" d="M243.4 194.41H242.9C242.599 194.41 242.301 194.469 242.024 194.584C241.746 194.699 241.493 194.868 241.281 195.081C241.068 195.293 240.899 195.546 240.784 195.824C240.669 196.101 240.61 196.399 240.61 196.7V216.7C240.613 217.307 240.855 217.887 241.284 218.316C241.713 218.745 242.293 218.987 242.9 218.99H243.49V194.42L243.4 194.41Z" fill="black"/>
<path id="Vector_19" d="M242.72 239.39C242.112 239.39 241.528 239.631 241.097 240.06C240.666 240.489 240.423 241.072 240.42 241.68V279.87C240.423 280.478 240.666 281.061 241.097 281.49C241.528 281.919 242.112 282.16 242.72 282.16H243.49V239.39H242.72Z" fill="black"/>
<path id="Vector_20" d="M243.49 297.12H242.84C242.233 297.12 241.65 297.361 241.221 297.791C240.791 298.22 240.55 298.803 240.55 299.41V312.04H243.55L243.49 297.12Z" fill="black"/>
<path id="Vector_21" d="M243.49 152.2V194.42C244.081 194.441 244.64 194.69 245.051 195.115C245.461 195.541 245.69 196.109 245.69 196.7V216.7C245.688 217.29 245.458 217.857 245.048 218.282C244.638 218.707 244.08 218.957 243.49 218.98V239.4H243.84C244.141 239.4 244.438 239.459 244.716 239.574C244.994 239.689 245.247 239.858 245.459 240.071C245.672 240.283 245.841 240.536 245.956 240.814C246.071 241.091 246.13 241.389 246.13 241.69V279.88C246.13 280.487 245.889 281.07 245.459 281.499C245.03 281.929 244.447 282.17 243.84 282.17H243.47V297.17H243.65C244.258 297.17 244.842 297.411 245.273 297.84C245.704 298.269 245.947 298.852 245.95 299.46V312.04H262.18V153.34C262.18 146.961 264.713 140.842 269.223 136.331C273.733 131.819 279.851 129.283 286.23 129.28H318.84V133.46C318.84 138.714 320.927 143.753 324.642 147.468C328.357 151.183 333.396 153.27 338.65 153.27H396.02V140.19H369.61C368.589 140.185 367.61 139.778 366.886 139.058C366.162 138.337 365.75 137.361 365.74 136.34V135.5C365.743 134.474 366.151 133.492 366.876 132.766C367.602 132.041 368.584 131.633 369.61 131.63H395.97V113.21H282.47C272.132 113.215 262.219 117.325 254.909 124.636C247.6 131.948 243.493 141.862 243.49 152.2V152.2Z" fill="black"/>
<path id="Vector_22" d="M245.69 216.69V196.69C245.69 196.099 245.461 195.531 245.051 195.105C244.64 194.68 244.081 194.431 243.49 194.41V218.96C244.078 218.937 244.635 218.688 245.044 218.265C245.454 217.843 245.685 217.279 245.69 216.69Z" fill="black"/>
<path id="Vector_23" d="M246.15 279.87V241.68C246.15 241.379 246.091 241.081 245.976 240.804C245.861 240.526 245.692 240.273 245.479 240.061C245.267 239.848 245.014 239.679 244.736 239.564C244.458 239.449 244.161 239.39 243.86 239.39H243.49V282.16H243.84C244.142 282.163 244.442 282.105 244.722 281.991C245.003 281.878 245.257 281.709 245.472 281.496C245.687 281.283 245.857 281.03 245.974 280.751C246.09 280.472 246.15 280.172 246.15 279.87V279.87Z" fill="black"/>
<path id="Vector_24" d="M268.84 290.54C268.84 274.95 282.44 262.31 299.22 262.31C316 262.31 329.59 274.95 329.59 290.54C329.55 294.705 328.561 298.806 326.699 302.532C324.836 306.257 322.148 309.509 318.84 312.04H395.94V223.34C396.868 222.463 398.02 221.859 399.269 221.594C400.518 221.329 401.816 221.415 403.02 221.84C405.051 222.486 406.758 223.885 407.79 225.75C411.62 232.28 417.65 236.49 424.43 236.49C436.01 236.49 445.43 224.22 445.43 209.07C445.43 193.92 436.05 181.66 424.43 181.66C418.97 181.66 414 184.38 410.27 188.85C408.855 190.56 407.657 192.437 406.7 194.44L406.51 195.63C406.51 195.63 402.04 199.45 395.94 195.94V153.24H338.6C333.355 153.227 328.329 151.134 324.625 147.42C320.92 143.706 318.84 138.675 318.84 133.43V129.25H286.25C283.089 129.251 279.959 129.876 277.039 131.087C274.119 132.299 271.466 134.074 269.233 136.311C266.999 138.548 265.229 141.204 264.022 144.126C262.815 147.048 262.196 150.179 262.2 153.34V312.04H279.54C276.241 309.504 273.563 306.25 271.709 302.525C269.855 298.799 268.874 294.701 268.84 290.54V290.54Z" fill="#686771"/>
<path id="Vector_25" d="M369.61 131.6C368.584 131.603 367.602 132.011 366.876 132.736C366.151 133.462 365.743 134.444 365.74 135.47V136.34C365.743 137.366 366.151 138.35 366.876 139.077C367.601 139.804 368.583 140.215 369.61 140.22H395.97V131.63L369.61 131.6Z" fill="#E6E8EC"/>
<path id="Vector_26" d="M548.01 252.42V311.78H554.76V250.03H551.11C549.4 250.03 548.01 251.1 548.01 252.42Z" fill="black"/>
<path id="Vector_27" d="M412.01 112.78H404.01V130.78H412.01V112.78Z" fill="black"/>
<path id="Vector_28" d="M412.01 139.78H404.01V152.78H412.01V139.78Z" fill="black"/>
<path id="Vector_29" d="M412.01 130.78H404.01V139.78H412.01V130.78Z" fill="#E6E8EC"/>
<path id="Vector_30" d="M556.14 252.54H554.26V311.71H558.43V254.84C558.43 254.232 558.189 253.648 557.76 253.217C557.331 252.786 556.748 252.543 556.14 252.54V252.54Z" fill="black"/>
<path id="Vector_31" d="M412 130.78C414.13 131.26 416 135.14 416 135.14V135.98C416 135.98 414.12 139.85 412 139.78V152.78H457.19C462.445 152.777 467.484 150.688 471.198 146.971C474.913 143.255 477 138.215 477 132.96V128.78H511C517.37 128.793 523.474 131.333 527.974 135.842C532.473 140.351 535 146.46 535 152.83V269.34C538.133 271.843 540.662 275.019 542.4 278.633C544.138 282.247 545.041 286.205 545.041 290.215C545.041 294.225 544.138 298.183 542.4 301.797C540.662 305.411 538.133 308.587 535 311.09V311.76H549V253.07C549 253.031 549.008 252.993 549.023 252.957C549.038 252.921 549.06 252.888 549.088 252.861C549.116 252.834 549.15 252.813 549.186 252.799C549.222 252.785 549.261 252.779 549.3 252.78H554V150.28C554.001 145.355 553.032 140.478 551.148 135.928C549.264 131.378 546.502 127.243 543.019 123.761C539.537 120.278 535.403 117.516 530.852 115.632C526.302 113.748 521.425 112.779 516.5 112.78H411.01V130.78H412ZM427.14 130.69C428.103 130.69 429.045 130.976 429.846 131.511C430.646 132.046 431.271 132.806 431.639 133.696C432.008 134.586 432.104 135.565 431.916 136.51C431.729 137.455 431.265 138.323 430.584 139.004C429.903 139.685 429.035 140.149 428.09 140.336C427.145 140.524 426.166 140.428 425.276 140.059C424.386 139.691 423.626 139.066 423.091 138.266C422.556 137.465 422.27 136.523 422.27 135.56C422.27 134.268 422.783 133.03 423.696 132.116C424.61 131.203 425.848 130.69 427.14 130.69Z" fill="black"/>
<path id="Vector_32" d="M425.96 177.72C441.67 177.72 454.41 191.33 454.41 208.11C454.41 224.89 441.67 238.5 425.96 238.5C421.69 238.476 417.483 237.467 413.666 235.55C409.85 233.634 406.529 230.861 403.96 227.45V311.78H494.96C491.663 309.236 488.987 305.976 487.135 302.246C485.283 298.516 484.303 294.414 484.27 290.25C484.27 274.64 497.84 261.99 514.59 261.99C522.053 261.939 529.291 264.545 535.01 269.34V152.83C535.01 146.46 532.483 140.351 527.984 135.842C523.484 131.333 517.38 128.793 511.01 128.78H477.01V132.96C477.01 138.215 474.923 143.255 471.208 146.971C467.494 150.688 462.455 152.777 457.2 152.78H404.01V188.78C406.574 185.374 409.887 182.605 413.694 180.687C417.5 178.769 421.698 177.754 425.96 177.72V177.72Z" fill="#686771"/>
<path id="Vector_33" d="M412 139.78C413.027 139.781 414.015 139.387 414.76 138.68C415.505 137.973 415.949 137.006 416 135.98V135.14C415.884 134.082 415.434 133.089 414.714 132.305C413.995 131.521 413.044 130.986 412 130.78H411V139.78H412Z" fill="#E6E8EC"/>
<path id="Vector_34" d="M427.921 140.345C430.575 139.915 432.378 137.413 431.947 134.758C431.516 132.103 429.015 130.3 426.36 130.731C423.705 131.162 421.902 133.664 422.333 136.319C422.764 138.974 425.266 140.776 427.921 140.345Z" fill="#E6E8EC"/>
<path id="Vector_35" d="M528.22 515.85V505.85C530.293 502.995 531.41 499.558 531.41 496.03C531.41 492.502 530.293 489.064 528.22 486.21V515.85Z" fill="black"/>
<path id="Vector_36" d="M546.93 519.71H528.22V524.01H546.93V519.71Z" fill="black"/>
<path id="Vector_37" d="M520.67 512.69C518.805 513.722 517.406 515.429 516.76 517.46C516.38 518.553 516.277 519.724 516.46 520.867C516.643 522.01 517.107 523.09 517.81 524.01H528.22V519.71H524.22C525.67 518.55 527.009 517.258 528.22 515.85V505.85C526.229 508.651 523.653 510.985 520.67 512.69V512.69Z" fill="#686771"/>
<path id="Vector_38" d="M524.2 519.71H528.2V515.85C526.989 517.258 525.65 518.55 524.2 519.71V519.71Z" fill="#686771"/>
<path id="Vector_39" d="M531.41 496.05C531.386 492.526 530.272 489.096 528.22 486.23V505.86C530.267 502.996 531.381 499.57 531.41 496.05V496.05Z" fill="black"/>
<path id="Vector_40" d="M546.93 524.01V687.92C546.93 698.263 542.821 708.183 535.507 715.497C528.193 722.811 518.273 726.92 507.93 726.92H402.93V710.92H504.16C510.541 710.92 516.661 708.385 521.173 703.873C525.685 699.361 528.22 693.241 528.22 686.86V524.01H546.93Z" fill="black"/>
<path id="Vector_41" d="M516.76 517.46C517.406 515.429 518.805 513.722 520.67 512.69C523.652 510.988 526.228 508.657 528.22 505.86V486.23C523.61 479.6 514.5 475.08 504 475.08C488.85 475.08 476.58 484.47 476.58 496.08C476.58 501.54 479.31 506.51 483.77 510.24C485.483 511.65 487.36 512.849 489.36 513.81L489.48 514C490.79 515.27 491.659 516.926 491.96 518.725C492.26 520.525 491.976 522.373 491.15 524H402.93V606C405.463 602.61 408.747 599.853 412.524 597.945C416.301 596.037 420.468 595.029 424.7 595C440.29 595 452.92 608.6 452.92 625.37C452.92 642.14 440.29 655.75 424.7 655.75C420.468 655.721 416.301 654.713 412.524 652.805C408.747 650.897 405.463 648.14 402.93 644.75V710.94H504.16C510.531 710.94 516.641 708.413 521.152 703.914C525.662 699.415 528.204 693.311 528.22 686.94V524.01H517.84C517.132 523.093 516.663 522.014 516.474 520.871C516.286 519.728 516.384 518.556 516.76 517.46V517.46Z" fill="#686771"/>
<path id="Vector_42" d="M707.02 269.14C712.6 266.63 716.73 262.4 718.14 256.98C718.311 256.322 718.438 255.654 718.52 254.98C718.769 254.356 718.983 253.718 719.16 253.07C720.57 247.63 719.02 242 715.34 237.19L708.03 265.19L707.02 269.14Z" fill="url(#paint0_linear)"/>
<path id="Vector_43" d="M725.006 284.09L723.812 288.781L727.853 289.809L729.047 285.119L725.006 284.09Z" fill="black"/>
<path id="Vector_44" d="M706.863 279.467L705.669 284.158L719.072 287.569L720.266 282.878L706.863 279.467Z" fill="black"/>
<path id="Vector_45" d="M720.258 282.889L719.065 287.58L723.803 288.786L724.997 284.096L720.258 282.889Z" fill="black"/>
<path id="Vector_46" d="M707.07 278.86C706.75 279.01 706.44 279.17 706.13 279.3L706.91 279.5L705.71 284.19L699.78 282.68C699.33 281.616 699.151 280.458 699.257 279.308C699.363 278.159 699.753 277.053 700.39 276.09C701.519 274.268 703.312 272.956 705.39 272.43C706.66 272.065 707.9 271.604 709.1 271.05L707.07 278.86Z" fill="#686771"/>
<path id="Vector_47" d="M721.22 299.11L723.03 299.58C723.322 299.655 723.626 299.671 723.925 299.629C724.224 299.586 724.511 299.484 724.77 299.33C725.029 299.176 725.255 298.972 725.436 298.73C725.616 298.488 725.746 298.213 725.82 297.92L727.84 289.84L723.84 288.84L721.22 299.11Z" fill="black"/>
<path id="Vector_48" d="M719.84 258.95C718.46 264.35 714.45 268.56 709.03 271.05L716.13 243.15C719.73 247.94 721.24 253.55 719.84 258.95Z" fill="black"/>
<path id="Vector_49" d="M718.7 298.47C718.113 298.319 717.61 297.942 717.301 297.421C716.991 296.9 716.901 296.277 717.05 295.69L719.11 287.6L705.71 284.19L664.84 444.73C667.812 450.515 668.567 457.186 666.963 463.489C665.358 469.791 661.506 475.29 656.13 478.95L655.18 482.69L673.31 487.34L721.22 299.15L718.7 298.47Z" fill="black"/>
<path id="Vector_50" d="M717.05 295.69C716.901 296.277 716.991 296.9 717.301 297.421C717.61 297.942 718.113 298.319 718.7 298.47L721.22 299.11L723.84 288.81L719.11 287.6L717.05 295.69Z" fill="black"/>
<path id="Vector_51" d="M700.38 276.09C701.516 274.274 703.306 272.964 705.38 272.43C706.646 272.062 707.883 271.601 709.08 271.05L716.19 243.15C711.74 237.496 705.503 233.52 698.5 231.87C683.83 228.13 669.61 234.2 666.76 245.42C665.41 250.71 666.83 256.2 670.24 260.92C671.546 262.71 673.068 264.332 674.77 265.75L674.84 265.97C675.804 267.529 676.24 269.356 676.085 271.182C675.93 273.008 675.192 274.736 673.98 276.11L584.32 253.28L564.09 332.76C567.371 330.103 571.221 328.238 575.34 327.312C579.46 326.386 583.737 326.423 587.84 327.42C602.95 331.27 611.84 347.57 607.7 363.82C603.56 380.07 588 390.14 572.89 386.34C568.795 385.261 565.006 383.249 561.819 380.461C558.632 377.673 556.134 374.185 554.52 370.27L533.75 451.83L613.17 472.04C610.594 468.77 608.798 464.956 607.917 460.887C607.037 456.818 607.096 452.602 608.09 448.56C611.94 433.46 628.23 424.56 644.49 428.7C648.83 429.763 652.893 431.743 656.403 434.509C659.913 437.274 662.79 440.759 664.84 444.73L705.71 284.19L699.84 282.68C699.38 281.622 699.189 280.467 699.283 279.317C699.377 278.168 699.754 277.059 700.38 276.09Z" fill="#686771"/>
<path id="Vector_52" d="M706.9 279.5L707.07 278.86C706.76 279.01 706.45 279.17 706.13 279.31L706.9 279.5Z" fill="#686771"/>
<g id="Group_2" opacity="0.1">
<path id="Vector_53" opacity="0.1" d="M725.03 284.12L720.3 282.91L706.91 279.5L707.08 278.86L709.08 271.05C707.88 271.604 706.64 272.065 705.37 272.43C703.292 272.956 701.499 274.268 700.37 276.09C700.076 276.593 699.829 277.122 699.63 277.67C699.825 277.122 700.069 276.593 700.36 276.09C701.496 274.274 703.286 272.964 705.36 272.43C706.626 272.062 707.863 271.601 709.06 271.05L716.17 243.15C711.72 237.496 705.483 233.52 698.48 231.87C683.81 228.13 669.59 234.2 666.74 245.42C665.39 250.71 666.81 256.2 670.22 260.92C671.526 262.71 673.048 264.332 674.75 265.75L674.82 265.97C675.784 267.529 676.22 269.356 676.065 271.182C675.91 273.008 675.172 274.736 673.96 276.11L584.3 253.28L564.07 332.76C567.353 330.1 571.207 328.234 575.33 327.307C579.453 326.381 583.734 326.42 587.84 327.42C602.95 331.27 611.84 347.57 607.7 363.82C603.56 380.07 588 390.14 572.89 386.34C568.795 385.261 565.006 383.249 561.819 380.461C558.632 377.673 556.134 374.185 554.52 370.27L533.75 451.83L613.17 472.04C610.594 468.77 608.798 464.956 607.917 460.887C607.037 456.818 607.096 452.602 608.09 448.56C611.94 433.46 628.23 424.56 644.49 428.7C648.83 429.763 652.893 431.743 656.403 434.509C659.913 437.274 662.79 440.759 664.84 444.73C667.812 450.515 668.567 457.186 666.963 463.489C665.358 469.791 661.506 475.29 656.13 478.95L655.18 482.69L673.31 487.34L721.22 299.15L723.03 299.62C723.322 299.695 723.626 299.711 723.925 299.669C724.224 299.626 724.511 299.524 724.77 299.37C725.029 299.216 725.255 299.012 725.436 298.77C725.616 298.528 725.746 298.253 725.82 297.96L727.84 289.84L729.03 285.15L725.03 284.12ZM706.59 279.12C706.44 279.19 706.29 279.27 706.14 279.33L706.59 279.12Z" fill="black"/>
<path id="Vector_54" opacity="0.1" d="M719.84 258.95C721.21 253.55 719.7 247.95 716.13 243.15L709.03 271.05C714.48 268.56 718.49 264.34 719.84 258.95Z" fill="black"/>
</g>
<path id="Vector_55" d="M725.987 280.223L724.793 284.914L728.835 285.942L730.028 281.252L725.987 280.223Z" fill="black"/>
<path id="Vector_56" d="M707.845 275.6L706.651 280.291L720.054 283.702L721.248 279.012L707.845 275.6Z" fill="black"/>
<path id="Vector_57" d="M721.243 279.003L720.049 283.693L724.788 284.9L725.981 280.209L721.243 279.003Z" fill="black"/>
<path id="Vector_58" d="M708.06 274.98L707.12 275.43L707.89 275.62L706.7 280.34L700.77 278.83C700.314 277.768 700.129 276.61 700.234 275.459C700.339 274.308 700.729 273.202 701.37 272.24C702.503 270.422 704.294 269.111 706.37 268.58C707.637 268.215 708.874 267.754 710.07 267.2L708.06 274.98Z" fill="#686771"/>
<path id="Vector_59" d="M722.2 295.24L724.02 295.7C724.314 295.779 724.621 295.799 724.923 295.759C725.225 295.718 725.516 295.617 725.779 295.463C726.042 295.308 726.271 295.103 726.453 294.858C726.635 294.614 726.767 294.336 726.84 294.04L728.9 285.96L724.9 284.96L722.2 295.24Z" fill="black"/>
<path id="Vector_60" d="M720.84 255.08C719.47 260.47 715.46 264.68 710.03 267.17L717.14 239.27C720.72 244.06 722.23 249.67 720.84 255.08Z" fill="black"/>
<path id="Vector_61" d="M719.69 294.6C719.398 294.525 719.124 294.394 718.883 294.213C718.643 294.033 718.44 293.806 718.286 293.547C718.133 293.288 718.033 293.001 717.99 292.703C717.948 292.405 717.965 292.102 718.04 291.81L720.04 283.73L706.7 280.34L665.84 440.86C668.818 446.642 669.576 453.314 667.971 459.616C666.367 465.919 662.51 471.416 657.13 475.07L656.18 478.81L674.32 483.43L722.22 295.24L719.69 294.6Z" fill="black"/>
<path id="Vector_62" d="M718.04 291.81C717.965 292.102 717.948 292.405 717.99 292.703C718.033 293.001 718.133 293.288 718.286 293.547C718.44 293.806 718.643 294.033 718.883 294.213C719.124 294.394 719.398 294.525 719.69 294.6L722.2 295.24L724.84 284.93L720.1 283.73L718.04 291.81Z" fill="black"/>
<path id="Vector_63" d="M701.37 272.21C702.503 270.392 704.294 269.081 706.37 268.55C707.637 268.185 708.874 267.724 710.07 267.17L717.17 239.27C712.723 233.618 706.49 229.641 699.49 227.99C684.81 224.26 670.6 230.32 667.74 241.55C666.4 246.83 667.81 252.32 671.23 257.04C672.536 258.833 674.057 260.458 675.76 261.88L675.83 262.09C676.79 263.65 677.225 265.476 677.07 267.302C676.916 269.127 676.179 270.854 674.97 272.23L585.3 249.41L565.04 328.88C568.327 326.216 572.186 324.348 576.315 323.423C580.444 322.498 584.731 322.542 588.84 323.55C603.94 327.39 612.84 343.69 608.7 359.95C604.56 376.21 588.99 386.26 573.84 382.42C569.751 381.334 565.968 379.317 562.787 376.528C559.605 373.739 557.112 370.252 555.5 366.34L534.74 447.9L614.15 468.12C611.576 464.849 609.781 461.034 608.903 456.966C608.024 452.897 608.085 448.682 609.08 444.64C612.92 429.53 629.22 420.64 645.48 424.78C649.829 425.843 653.898 427.829 657.411 430.603C660.924 433.378 663.799 436.876 665.84 440.86L706.7 280.34L700.77 278.83C700.314 277.763 700.129 276.6 700.234 275.444C700.339 274.289 700.729 273.177 701.37 272.21Z" fill="#686771"/>
<path id="Vector_64" d="M707.89 275.63L708.05 274.98C707.74 275.13 707.43 275.29 707.12 275.43L707.89 275.63Z" fill="#686771"/>
</g>
<defs>
<filter id="filter0_d" x="-3" y="0" width="887" height="619" filterUnits="userSpaceOnUse" color-interpolation-filters="sRGB">
<feFlood flood-opacity="0" result="BackgroundImageFix"/>
<feColorMatrix in="SourceAlpha" type="matrix" values="0 0 0 0 0 0 0 0 0 0 0 0 0 0 0 0 0 0 127 0"/>
<feOffset dy="4"/>
<feGaussianBlur stdDeviation="2"/>
<feColorMatrix type="matrix" values="0 0 0 0 0 0 0 0 0 0 0 0 0 0 0 0 0 0 0.25 0"/>
<feBlend mode="normal" in2="BackgroundImageFix" result="effect1_dropShadow"/>
<feBlend mode="normal" in="SourceGraphic" in2="effect1_dropShadow" result="shape"/>
</filter>
<linearGradient id="paint0_linear" x1="713.35" y1="269.14" x2="713.35" y2="237.21" gradientUnits="userSpaceOnUse">
<stop stop-color="#808080" stop-opacity="0.25"/>
<stop offset="0.54" stop-color="#808080" stop-opacity="0.12"/>
<stop offset="1" stop-color="#808080" stop-opacity="0.1"/>
</linearGradient>
<clipPath id="clip0">
<rect width="929.68" height="818.68" fill="white"/>
</clipPath>
</defs>
</svg>
